#!OML:ASF F:\VICON\USERDATA\INSTALL\rory3\rory3.ASF
:FULLY-SPECIFIED
:DEGREES
174
root -0.1996061965216792 17.788259354663218 54.878614208075895 -1.9749718165816565 -1.9862796280808408 -2.798305476903093
lfemur -7.730810212197654 -2.4199259451554163 -21.30309434957323
ltibia 22.877960943043945
lfoot 6.153025144318089 -7.006692609319443
ltoes -0.08854233350431251
rfemur -11.87676361411929 4.242245462111228 26.79369242683576
rtibia 29.046241835874177
rfoot -6.155918725164707 -3.4755337176667935
rtoes 8.10319436274856
lowerback 10.686876735853216 0.2211319790058895 3.3481928799174843
upperback 0.06523743260309364 0.8994676008805327 1.5313112833723734
thorax -5.213298543895066 0.36755590633755386 -0.7397517589257239
lowerneck -15.999098533968132 -2.677523928675807 -3.5222909082547273
upperneck 22.3200877902341 -3.0874001771995303 0.6334980557041696
head 9.582103846582344 -1.6001250676450252 0.777422618241064
lclavicle 1.455844752490981e-16 2.3590726743132884e-16
lhumerus -33.628368996232965 4.679468743225845 79.56477282216895
lradius 26.724027462002294
lwrist 6.242131610147453
lhand -29.716407436368662 18.961434295600093
lfingers 7.12502
lthumb -3.010846961860979 48.685749065878596
rclavicle 1.4564630901316968e-16 2.359802388409082e-16
rhumerus -26.312382980594354 -18.710649347921077 -76.19979232921118
rradius 19.194475934609315
rwrist 10.203205072597122
rhand -18.0470649256524 22.90005114233031
rfingers 7.12502
rthumb 7.670739059557098 -7.554013053308347
175
root -0.197893984143943 17.788669628636157 54.913339585862275 -1.8637036532860156 -1.9951121777311946 -2.6753458283396014
lfemur -7.848361133702308 -2.5644151808542386 -21.104875952979825
ltibia 23.12156452098235
lfoot 6.01029655306738 -6.765136842669753
ltoes -0.5322192731716484
rfemur -11.408424297045205 4.269506609667394 26.70444940555212
rtibia 29.380883485034673
rfoot -5.951894328334918 -3.1510595724606256
rtoes 8.245143751722189
lowerback 10.563263212562168 0.24380749967625018 3.299249965024994
upperback 0.014120673624405916 0.9105519605076804 1.508993500651527
thorax -5.207722810901814 0.36839010004096584 -0.8052635603554064
lowerneck -15.993497881973395 -2.6782956634196218 -3.5121624000288243
upperneck 22.3404338232361 -3.0926971029940544 0.6433607009292979
head 9.590962392828013 -1.6025509453454927 0.7798591235263754
lclavicle 1.4524443105735707e-16 2.356472431196928e-16
lhumerus -33.71424987860622 5.012943103512401 79.46500564509168
lradius 26.31558733021803
lwrist 6.030632681125935
lhand -29.46032421349525 19.16294988980959
lfingers 7.12502
lthumb -2.819998128188458 48.8734213214053
rclavicle 1.4580926361559978e-16 2.361055205402938e-16
rhumerus -26.41305070967914 -18.701772929690094 -76.22258906461266
rradius 19.414446414742038
rwrist 9.999711292035014
rhand -18.03483253568463 22.912876240665188
rfingers 7.12502
rthumb 7.71639989186222 -7.537866560222989
176
root -0.19468186161514012 17.797541177334196 54.94668451747534 -1.7051270382021753 -1.9573972032927769 -2.8872378778887695
lfemur -8.09672847876308 -2.7912287999432537 -20.572548819677653
ltibia 23.126104386867212
lfoot 6.353635539582819 -6.536400092956059
ltoes -0.4125421677389207
rfemur -11.06674297411016 4.271933229995629 26.839689195513664
rtibia 29.56782339122963
rfoot -5.721177807795744 -2.9268646537086744
rtoes 8.169024117741158
lowerback 10.437450179664113 0.22166047550561482 3.547806455076241
upperback -0.03593347861683155 0.9223010574866346 1.5443077675936614
thorax -5.218776577374459 0.3657167387190653 -0.9243045961397873
lowerneck -15.991599451826861 -2.6770996749568163 -3.484201557815413
upperneck 22.36632326827228 -3.091497368145273 0.6414363108186664
head 9.601887798395145 -1.601554067774071 0.7742534358639382
lclavicle 1.4543739264800424e-16 2.357966460258075e-16
lhumerus -33.69575998925399 5.086623216895093 79.42264941219396
lradius 25.999351194507245
lwrist 5.723953315426573
lhand -29.256121124561215 19.390593602306197
lfingers 7.12502
lthumb -2.655394610076502 49.07147469304621
rclavicle 1.4605619786605414e-16 2.362954153634506e-16
rhumerus -26.36514205858875 -18.564679866224694 -76.37129312065848
rradius 19.52067158269579
rwrist 9.74015400498656
rhand -18.027222310101063 22.937135720497054
rfingers 7.12502
rthumb 7.768352347253765 -7.577468400435562
177
root -0.19203203731439444 17.79532013528878 54.99983979467041 -1.5340677055652665 -1.8908655033277257 -2.7393557955222123
lfemur -8.395176164051259 -2.948824539770584 -20.389011715808234
ltibia 23.24134155916439
lfoot 6.606523168073033 -6.9445853169057346
ltoes -0.7786691696814874
rfemur -10.917416395712824 4.1689942079768585 26.616863600323356
rtibia 30.077780190017382
rfoot -5.679682835904693 -2.8406004350391427
rtoes 8.221441333544444
lowerback 10.266501874452489 0.2019053280800043 3.516649479980125
upperback -0.07530781559424951 0.8905651780946487 1.5262116097622649
thorax -5.19829848843874 0.3508323178014758 -0.9426094571275934
lowerneck -15.989861564057616 -2.6809269383554852 -3.5118024536500188
upperneck 22.388135326008992 -3.0989598885561596 0.6604493811042494
head 9.608765810860666 -1.604404877752876 0.7833926675309387
lclavicle 1.4508443935888897e-16 2.355238242619323e-16
lhumerus -33.690212484832806 5.127105665888681 79.3921763119097
lradius 25.744763628374752
lwrist 5.362721548130808
lhand -29.01427687584115 19.623711465545256
lfingers 7.12502
lthumb -2.4153049995492486 49.3389500447302
rclavicle 1.4566581394546159e-16 2.359952051209404e-16
rhumerus -26.280596177570118 -18.386831463864524 -76.49280311379289
rradius 19.513960838320195
rwrist 9.883779995292677
rhand -18.041523861362503 22.95574779091561
rfingers 7.12502
rthumb 7.782786816365648 -7.552333850697082
178
root -0.18653886830781485 17.788631778483595 54.99461002067997 -1.3884473950880767 -1.8151793853919775 -2.6752488187684387
lfemur -8.687764104620651 -3.043926388045064 -20.134499329524925
ltibia 23.432704539313526
lfoot 6.7330157136076005 -6.99739111855007
ltoes -0.569686611088696
rfemur -10.877988402722156 4.059431650481891 26.426018413283312
rtibia 30.718890855399586
rfoot -5.72486150802245 -2.9241210123895973
rtoes 8.330164545873542
lowerback 10.11626364536642 0.16758863782695052 3.570321835388203
upperback -0.12675536553831385 0.8381056966040941 1.5237975984352394
thorax -5.204800041068608 0.3136604678205457 -0.944705650272875
lowerneck -15.974638521286506 -2.6815211754067723 -3.5170993669946
upperneck 22.40655440165987 -3.09794130139658 0.6419131818895242
head 9.613914682037594 -1.605576166827298 0.7765702420024944
lclavicle 1.4532654615856793e-16 2.357112760260889e-16
lhumerus -33.665273560190485 5.106472459419764 79.33774506192411
lradius 25.695255292503774
lwrist 5.000190964525392
lhand -28.795360619197936 19.88402953893841
lfingers 7.12502
lthumb -2.214920143073779 49.57542038642177
rclavicle 1.4601905446095643e-16 2.3626681336855624e-16
rhumerus -26.251281507548093 -18.202737569012804 -76.60312653367836
rradius 19.518713671662052
rwrist 9.992390855985057
rhand -18.064102175546974 22.95213219333932
rfingers 7.12502
rthumb 7.799606789036823 -7.60985737628282
179
root -0.18468268025497303 17.7846608531123 54.94225464703704 -1.2490829892735589 -1.684791156764165 -2.8330100583332567
lfemur -9.088881466714001 -3.1690008687361857 -19.687644823277214
ltibia 23.547070740268936
lfoot 6.813777594217563 -7.074282780844619
ltoes -0.9689724597657312
rfemur -10.84843949964029 3.950816026670561 26.477993124780085
rtibia 31.406623335573915
rfoot -5.681912074871968 -3.096996536205544
rtoes 8.00050162469727
lowerback 9.991144101066887 0.11327651129244753 3.7790414365800156
upperback -0.2045222004453997 0.792859920795768 1.5462631024361972
thorax -5.279957229378696 0.28034565049716126 -0.955310404488193
lowerneck -15.943337168074851 -2.6919002519609485 -3.549246846622987
upperneck 22.419338301604355 -3.115541425613143 0.6619641314055074
head 9.610454323723204 -1.61251448051742 0.7832463191262002
lclavicle 1.451620640566021e-16 2.3558537536273904e-16
lhumerus -33.63903870812921 4.934383750785536 79.3326790456413
lradius 25.77315312291867
lwrist 4.736445495486304
lhand -28.583126794095314 20.06066132201734
lfingers 7.12502
lthumb -1.9959278788111696 49.791752151238114
rclavicle 1.4609259841783182e-16 2.363233642992617e-16
rhumerus -26.19945588386087 -17.918476216720514 -76.73947597563232
rradius 19.491005368974122
rwrist 9.999187973821664
rhand -18.11460080193089 22.909341041940507
rfingers 7.12502
rthumb 7.793884107946912 -7.640079262104564
180
root -0.17947862177570018 17.761670528468866 54.87042981451721 -1.237179943998808 -1.6250841265003861 -2.639249685041356
lfemur -9.475451764237098 -3.1704957200033634 -19.577740232963542
ltibia 23.8902474006988
lfoot 6.407818331164301 -7.0131038389096645
ltoes -1.0948651788738744
rfemur -10.86912437836109 3.743573686047188 26.28293060933333
rtibia 32.317067290980816
rfoot -5.551499211741059 -3.138332860978502
rtoes 8.389086947628682
lowerback 9.952038935389487 0.0790620441664604 3.6895845136574326
upperback -0.24215777764923896 0.719580458832613 1.516845593237921
thorax -5.364409702376936 0.2404200555324373 -0.8512389307644466
lowerneck -15.924637642589799 -2.7045636975894163 -3.5884684379622334
upperneck 22.375039686650805 -3.1324057965441368 0.7099702912429973
head 9.589655044456752 -1.6169049306182277 0.803993256222707
lclavicle 1.4511278612889503e-16 2.355467970455966e-16
lhumerus -33.50804377825968 4.7365794843296865 79.35023318509698
lradius 25.977184853993364
lwrist 4.502360036684795
lhand -28.41085227838988 20.097490708906204
lfingers 7.12502
lthumb -1.8586219866082332 49.879311867501976
rclavicle 1.4600920001497704e-16 2.362592216833148e-16
rhumerus -26.07921324165162 -17.54373498004529 -76.88293400315725
rradius 19.441621422037322
rwrist 10.084012518865768
rhand -18.186628763109937 22.871432832203173
rfingers 7.12502
rthumb 7.782252703919346 -7.716845188504775
181
root -0.17635538502596104 17.737903460044567 54.86327451955671 -1.2151564812433264 -1.708155832237379 -2.639839683517574
lfemur -9.83168288310863 -3.089630952605468 -19.301010104043527
ltibia 24.11282527862462
lfoot 5.791365231931123 -6.4521388390210745
ltoes -1.1041567763363909
rfemur -11.133392807987596 3.6267877576800376 26.247898092297095
rtibia 33.310295839409214
rfoot -5.209275749830905 -3.0848737153109993
rtoes 8.802334680168295
lowerback 9.964505376901949 0.08911430584863278 3.685098450687626
upperback -0.27583619228293943 0.7364276648249048 1.5167979797043893
thorax -5.461436689516646 0.24351374153260036 -0.7670142473720372
lowerneck -15.90140364942144 -2.7188478724272858 -3.617913648523336
upperneck 22.311071374235706 -3.1544239049939424 0.7695712216766089
head 9.558207249884587 -1.6250046101451159 0.8243900012166792
lclavicle 1.4569802159163393e-16 2.3599852755391727e-16
lhumerus -33.30440903962566 4.452168723979691 79.40009206603669
lradius 26.25547454195715
lwrist 4.524015259476068
lhand -28.412022747437337 20.057669435972947
lfingers 7.12502
lthumb -1.8799021588274507 49.824331001912135
rclavicle 1.4619493574804422e-16 2.364020434184539e-16
rhumerus -25.97597632898046 -17.30294722451787 -77.06670337120657
rradius 19.394793850394205
rwrist 10.13345523810983
rhand -18.236486960603102 22.892435205369498
rfingers 7.12502
rthumb 7.797353466770269 -7.70040406817865
